<?xml version="1.0" encoding="UTF-8"?>
<svg version="1.1" xmlns="http://www.w3.org/2000/svg" width="512" height="512">
<path d="M0 0 C9.3236445 7.18035406 17.52373929 16.23565062 25.8605957 24.51049805 C27.49883387 26.13209773 29.14242976 27.74830206 30.79125977 29.35913086 C33.20265602 31.71549972 35.59694145 34.08814292 37.98828125 36.46484375 C39.08369987 37.52625832 39.08369987 37.52625832 40.20124817 38.6091156 C46.33192115 44.76518145 51.41824857 52.07981145 52 61 C52.0825 62.2375 52.165 63.475 52.25 64.75 C51.96934882 79.4841869 42.22680625 89.22490783 32.37988281 99.02416992 C31.31088176 100.09888482 30.24250937 101.17422536 29.17471313 102.25013733 C26.29311091 105.14957296 23.40214243 108.03948975 20.50875187 110.92715621 C18.08561885 113.34718342 15.66711397 115.77181004 13.24854732 118.19639951 C7.53904487 123.91991305 1.8218248 129.63563417 -3.90039062 135.34643555 C-9.7856407 141.22020488 -15.65799514 147.10664176 -21.52409244 152.99953383 C-26.57862087 158.07627586 -31.64093639 163.14515951 -36.709512 168.20787698 C-39.72893592 171.22394402 -42.74544941 174.24277531 -45.75453949 177.2691555 C-48.58559629 180.11577006 -51.42633478 182.95236695 -54.27452469 185.78183556 C-55.31229429 186.81594378 -56.34674014 187.85340114 -57.37739944 188.8945961 C-67.05047041 198.65888941 -75.51318736 204.78998316 -89.25 206.375 C-100.69749321 205.23025068 -108.11555232 201.24745171 -116 193 C-117.33219031 191.66552463 -118.66515409 190.33181904 -120 189 C-123.36335594 190.45745424 -125.54534005 192.31117854 -128.109375 194.9140625 C-128.86347656 195.67460937 -129.61757813 196.43515625 -130.39453125 197.21875 C-131.17183594 198.0128125 -131.94914062 198.806875 -132.75 199.625 C-133.54277344 200.42679688 -134.33554687 201.22859375 -135.15234375 202.0546875 C-137.10614493 204.03202846 -139.05512103 206.01388909 -141 208 C-135.85605273 214.17273673 -130.42566654 220.06162588 -124.84277344 225.83691406 C-123.7771448 226.94958455 -122.72243572 228.07281218 -121.67871094 229.20605469 C-115.92227558 235.89653794 -115.92227558 235.89653794 -108.24316406 239.4987793 C-105.70609024 239.2356381 -103.44626727 238.70671141 -101 238 C-74.72517387 236.75570757 -48.17322293 244.35010073 -28.17578125 261.890625 C-22.72816581 267.1719757 -19.01902453 270.94260483 -18.57421875 278.734375 C-19.62129319 284.30596374 -24.25700705 288.50325949 -28.13574219 292.36279297 C-28.63375839 292.86110123 -29.1317746 293.35940948 -29.6448822 293.87281799 C-31.27417916 295.50073383 -32.91041946 297.12147075 -34.546875 298.7421875 C-35.68502801 299.87660605 -36.82273707 301.01147018 -37.96002197 302.14675903 C-40.94104439 305.12017914 -43.92802567 308.08754137 -46.9163208 311.0536499 C-49.96999633 314.08679344 -53.01795265 317.12567232 -56.06640625 320.1640625 C-62.03871232 326.11497873 -68.01733065 332.05950253 -74 338 C-72.66704654 340.97312101 -71.22314861 343.00687169 -68.88305664 345.26464844 C-68.25222672 345.87918884 -67.62139679 346.49372925 -66.97145081 347.12689209 C-66.2912236 347.78111145 -65.6109964 348.43533081 -64.91015625 349.109375 C-63.47157222 350.51778704 -62.03343513 351.92665571 -60.59570312 353.3359375 C-58.33176277 355.54420518 -56.06419894 357.7483607 -53.78833008 359.94433594 C-51.58840657 362.07136682 -49.40473857 364.21406521 -47.22265625 366.359375 C-46.54445328 367.00549744 -45.86625031 367.65161987 -45.16749573 368.31732178 C-40.83345964 372.60464576 -38.64221542 376.10045911 -37 382 C-37.0901494 387.3188144 -38.23772858 390.23772858 -42 394 C-46.53967195 396.71802015 -50.85632728 396.91264961 -56 396 C-58.0045166 394.66856384 -58.0045166 394.66856384 -59.86914062 392.91772461 C-60.55500244 392.28091766 -61.24086426 391.64411072 -61.94750977 390.98800659 C-62.62483154 390.33196442 -63.30215332 389.67592224 -64 389 C-64.61351318 388.40994171 -65.22702637 387.81988342 -65.85913086 387.21194458 C-67.70503176 385.40950421 -69.52709982 383.58580427 -71.34375 381.75390625 C-72.32559265 380.76994118 -72.32559265 380.76994118 -73.32727051 379.76609802 C-75.38723823 377.70059855 -77.44367366 375.63162405 -79.5 373.5625 C-80.9086205 372.14885566 -82.31747267 370.73544214 -83.7265625 369.32226562 C-87.15372133 365.88416851 -90.57772019 362.44295344 -94 359 C-99.84949104 363.80838524 -105.16736195 369.07400911 -110.47668839 374.46265411 C-112.03806304 376.04630717 -113.60359063 377.62574491 -115.17037964 379.20404053 C-119.61973612 383.68676628 -124.06469616 388.17378352 -128.49951172 392.67089844 C-131.22436511 395.43343481 -133.95651265 398.18857491 -136.69344711 400.93914032 C-137.73041862 401.98414535 -138.76461044 403.03191657 -139.79590225 404.08252716 C-141.23614738 405.54930794 -142.68549377 407.00649517 -144.13720703 408.46191406 C-144.95770538 409.29209045 -145.77820374 410.12226685 -146.62356567 410.9776001 C-150.42172126 414.20991727 -152.95721858 415.03310417 -157.9375 414.875 C-163.31910529 414.32247379 -167.34057073 410.97299886 -170.74609375 406.96875 C-171.65515001 405.82184864 -172.55192171 404.66512536 -173.4375 403.5 C-173.91340576 402.8797998 -174.38931152 402.25959961 -174.87963867 401.62060547 C-186.19326123 386.62396835 -196.86705064 365.95127614 -194.2734375 346.65234375 C-192.23659374 331.46690808 -192.23659374 331.46690808 -197.83300781 317.69970703 C-205.42632164 308.40227371 -214.69587191 300.52931276 -224 293 C-227.36335594 294.45745424 -229.54534005 296.31117854 -232.109375 298.9140625 C-232.86347656 299.67460937 -233.61757812 300.43515625 -234.39453125 301.21875 C-235.17183594 302.0128125 -235.94914063 302.806875 -236.75 303.625 C-237.54277344 304.42679687 -238.33554688 305.22859375 -239.15234375 306.0546875 C-241.10614493 308.03202846 -243.05512103 310.01388909 -245 312 C-241.16819879 316.50809608 -241.16819879 316.50809608 -237.2421875 320.93359375 C-230.17176616 328.71105723 -227.59965999 336.34205077 -227.7265625 346.7734375 C-228.96351313 361.36945493 -239.64523297 370.94727219 -249.47412109 380.7487793 C-250.51512828 381.79414378 -251.55572007 382.83992206 -252.59593201 383.88607788 C-255.39915447 386.70258889 -258.2086415 389.51276769 -261.01978636 392.32136893 C-263.37487013 394.67537656 -265.72695622 397.03236855 -268.07911265 399.38930064 C-273.63113954 404.95238655 -279.18843241 410.51017267 -284.74902344 416.06469727 C-290.46824575 421.77787564 -296.17821754 427.50018161 -301.88376749 433.22701138 C-306.80087048 438.16177187 -311.72380596 443.09066087 -316.65136969 448.01497585 C-319.58642626 450.94822682 -322.51925772 453.88361506 -325.44642258 456.82474327 C-328.19930106 459.59026405 -330.95943933 462.34833406 -333.72513008 465.10103989 C-334.73342956 466.10698834 -335.73922716 467.1154524 -336.74218941 468.12672234 C-345.41592133 476.86705073 -353.82808391 485.09028852 -366.75952148 485.38061523 C-381.99781563 485.33893599 -390.64271364 478.53760594 -401.22772217 468.0501709 C-402.28289032 466.98893005 -402.28289032 466.98893005 -403.359375 465.90625 C-404.11164368 465.15589478 -404.86391235 464.40553955 -405.63897705 463.63244629 C-407.21441115 462.05836288 -408.78736399 460.48179242 -410.35791016 458.90283203 C-412.75071329 456.4992835 -415.15405062 454.10664108 -417.55859375 451.71484375 C-419.09699606 450.17512024 -420.63477806 448.63477665 -422.171875 447.09375 C-423.23918854 446.03250916 -423.23918854 446.03250916 -424.32806396 444.9498291 C-432.96886095 436.22788448 -438.03009103 428.58353581 -438.4375 416.0625 C-437.958556 398.91262059 -425.62679819 389.48296785 -414.22290039 378.0300293 C-413.17360473 376.97280716 -412.12448165 375.9154137 -411.07551575 374.85786438 C-407.66988205 371.42634231 -404.25909564 367.99996775 -400.84765625 364.57421875 C-399.66504492 363.38623731 -398.4824373 362.19825218 -397.2998333 361.01026344 C-392.38026501 356.06913076 -387.45928379 351.12941244 -382.534585 346.19339275 C-375.51257162 339.15511855 -368.49921736 332.10846031 -361.49754339 325.0499503 C-356.55063043 320.06426855 -351.59410493 315.08827279 -346.63041109 310.11929828 C-343.67513756 307.16038595 -340.72412667 304.19750669 -337.78337288 301.22415733 C-335.01911342 298.42968825 -332.24305408 295.64749198 -329.45779228 292.87396049 C-328.4432921 291.85967985 -327.43299238 290.84117584 -326.42747498 289.81798935 C-318.20166473 281.45565888 -310.01876652 275.0270441 -297.875 274.75 C-284.41233302 274.99599558 -276.24064221 281.40251201 -267.21484375 290.71484375 C-266.81394531 291.13894531 -266.41304687 291.56304687 -266 292 C-262.63664406 290.54254576 -260.45465995 288.68882146 -257.890625 286.0859375 C-257.13652344 285.32539063 -256.38242187 284.56484375 -255.60546875 283.78125 C-254.82816406 282.9871875 -254.05085937 282.193125 -253.25 281.375 C-252.45722656 280.57320313 -251.66445312 279.77140625 -250.84765625 278.9453125 C-248.89385507 276.96797154 -246.94487897 274.98611091 -245 273 C-250.02073073 266.85962402 -255.58897801 261.33464741 -261.23580742 255.78072357 C-262.96824004 254.07526821 -264.69597912 252.36518685 -266.42237854 250.65362549 C-271.32686942 245.79154079 -276.23392756 240.93215561 -281.1574707 236.08935547 C-284.18176824 233.11398344 -287.19586476 230.1285906 -290.20384407 227.13672638 C-291.34148591 226.00888303 -292.48274729 224.88467693 -293.62789726 223.7644577 C-307.55426252 210.1346259 -316.64102955 195.59805848 -317.3125 175.6875 C-317.05435999 164.36160724 -313.61567588 154.22933574 -309 144 C-312.3 140.7 -315.6 137.4 -319 134 C-320.4025 134.474375 -321.805 134.94875 -323.25 135.4375 C-334.95053525 139.39503398 -348.75898412 139.94908374 -360.36328125 135.3203125 C-373.84778401 128.5680726 -382.22660478 118.42175822 -387.3125 104.375 C-390.01477973 91.59113821 -388.2168531 78.50939403 -381.56640625 67.29296875 C-374.73732882 57.29628932 -365.97811319 49.6129864 -354.09375 46.47265625 C-342.93003478 44.76708865 -331.15439802 44.61097302 -321 50 C-320.06800781 50.48597656 -319.13601563 50.97195312 -318.17578125 51.47265625 C-306.64754839 58.12537453 -299.75057478 68.2277621 -296.25 80.875 C-294.17808983 89.95952923 -294.7424463 97.19038774 -297.24609375 106.140625 C-297.49488281 107.08421875 -297.74367188 108.0278125 -298 109 C-298.28230469 110.00675781 -298.56460938 111.01351562 -298.85546875 112.05078125 C-299.29478537 115.1035257 -299.29478537 115.1035257 -297.3046875 117.58984375 C-296.50289062 118.36457031 -295.70109375 119.13929687 -294.875 119.9375 C-294.08867187 120.73027344 -293.30234375 121.52304688 -292.4921875 122.33984375 C-290.15018021 124.25685489 -290.15018021 124.25685489 -287.4921875 123.875 C-285.03478188 123.01221182 -282.64015641 122.09745335 -280.25 121.0625 C-268.7460561 116.41700136 -254.85147076 114.3910947 -243 119 C-239.86152808 121.60426394 -238.28970458 123.13088625 -237 127 C-236.61226284 131.73039335 -236.51882128 134.05546399 -238.6875 138.3125 C-241.43032481 141.50010721 -243.70836166 143.69837406 -248.02368164 144.26635742 C-250.41318908 144.37664238 -252.7955981 144.41553665 -255.1875 144.4375 C-265.63359028 144.78408561 -273.41510641 146.59768577 -281.2421875 153.93359375 C-287.2414079 160.98601063 -289.41031089 168.93301752 -289.265625 178 C-288.60114916 185.50466827 -286.03170934 191.22706518 -280.92579651 196.74679565 C-280.12258532 197.6154211 -279.31937412 198.48404655 -278.4918232 199.37899399 C-274.5957928 203.47700508 -270.63174034 207.49938452 -266.62475586 211.48876953 C-265.7358667 212.37780472 -264.84697754 213.2668399 -263.93115234 214.18281555 C-261.52653848 216.58685798 -259.11974984 218.98868106 -256.71190715 221.38948679 C-254.18368884 223.91139295 -251.65836055 226.4361899 -249.13270569 228.96066284 C-244.36448489 233.72579327 -239.59372409 238.48837203 -234.82201248 243.25000656 C-229.38338992 248.6773962 -223.94765519 254.10767428 -218.51214397 259.53817964 C-207.34460703 270.6953042 -196.17350489 281.84885196 -185 293 C-184.38647675 291.96350311 -183.77295349 290.92700623 -183.14083862 289.85910034 C-182.32564311 288.48915259 -181.51029704 287.11929442 -180.69482422 285.74951172 C-180.29168503 285.0675322 -179.88854584 284.38555267 -179.47319031 283.6829071 C-170.37208214 268.42528606 -156.46719073 257.39493249 -141 249 C-145.15163701 244.04348612 -149.4747941 239.39860244 -154.07519531 234.85888672 C-154.75560883 234.18314606 -155.43602234 233.5074054 -156.13705444 232.81118774 C-157.60262667 231.35605275 -159.0692968 229.90202285 -160.53696442 228.44900131 C-162.85986135 226.14825376 -165.1786604 223.84345003 -167.49627686 221.53738403 C-174.08183054 214.98531707 -180.67157108 208.43750685 -187.27148438 201.89990234 C-191.31779525 197.89121596 -195.35677684 193.8752697 -199.39113617 189.85455704 C-200.92737745 188.32636863 -202.46639103 186.80096189 -204.00821686 185.27840805 C-206.15986013 183.15321357 -208.30207166 181.01892239 -210.44238281 178.88232422 C-211.08031769 178.25674622 -211.71825256 177.63116821 -212.3755188 176.9866333 C-216.07129158 173.27388078 -218.83619615 170.18871493 -219.1171875 164.71875 C-218.5700491 159.70625625 -217.81707766 156.59895894 -214 153 C-211.14434686 151.30576553 -208.93944365 150.68314813 -205.625 150.625 C-204.89539063 150.59664062 -204.16578125 150.56828125 -203.4140625 150.5390625 C-196.71266184 151.81861797 -191.77600886 157.96023629 -187.1953125 162.609375 C-186.4713327 163.33618469 -185.74735291 164.06299438 -185.00143433 164.81182861 C-182.70452619 167.11987519 -180.41469504 169.43479974 -178.125 171.75 C-176.5629631 173.32207486 -175.0004679 174.89369449 -173.4375 176.46484375 C-169.61967851 180.30464152 -165.80763361 184.15010089 -162 188 C-158.6752055 186.42411996 -156.48368383 184.7182851 -153.890625 182.0859375 C-153.13652344 181.32539063 -152.38242187 180.56484375 -151.60546875 179.78125 C-150.82816406 178.9871875 -150.05085938 178.193125 -149.25 177.375 C-148.45722656 176.57320312 -147.66445313 175.77140625 -146.84765625 174.9453125 C-144.89385507 172.96797154 -142.94487897 170.98611091 -141 169 C-144.13992805 165.30376002 -147.30704642 161.66310216 -150.625 158.125 C-157.31753714 150.31951323 -158.83625464 143.02114295 -158.37109375 132.87109375 C-156.91805636 117.71361955 -144.49215059 108.34347611 -134.31469727 98.12182617 C-133.27525384 97.07445597 -132.23598286 96.0269146 -131.1968689 94.97921753 C-127.82369901 91.58016299 -124.44537985 88.18625249 -121.06640625 84.79296875 C-119.89493899 83.61613124 -118.72347537 82.43929012 -117.5520153 81.26244545 C-112.67876984 76.36763627 -107.80411177 71.47424114 -102.92573643 66.58454418 C-95.97028557 59.61283251 -89.02349551 52.63273775 -82.08838421 45.64079112 C-77.18818086 40.70181724 -72.27836368 35.77253135 -67.36137813 30.85026532 C-64.43404953 27.9192982 -61.51098364 24.98436693 -58.59817696 22.03896141 C-55.86018326 19.27075492 -53.11038822 16.51482722 -50.35139084 13.76755905 C-49.34656593 12.76295365 -48.34594019 11.75412593 -47.35009956 10.74061394 C-34.17255574 -2.65778169 -17.91589198 -9.45003582 0 0 Z M-20.91088867 23.1096344 C-21.5113501 23.6877739 -22.11181152 24.26591339 -22.73046875 24.86157227 C-23.76373291 25.83901901 -23.76373291 25.83901901 -24.81787109 26.83621216 C-25.53797363 27.55026215 -26.25807617 28.26431213 -27 29 C-27.72912598 29.70736298 -28.45825195 30.41472595 -29.20947266 31.14352417 C-31.59713757 33.48133948 -33.95713543 35.84450394 -36.3125 38.21484375 C-37.59398926 39.49845543 -37.59398926 39.49845543 -38.90136719 40.80799866 C-41.60328862 43.51547381 -44.30169359 46.22642254 -47 48.9375 C-48.84221577 50.78473675 -50.68466143 52.63174427 -52.52734375 54.47851562 C-57.02089061 58.98303003 -61.5115632 63.49039405 -66 68 C-61.31179066 73.63568661 -56.30014592 78.83103966 -51.1015625 83.99609375 C-49.84912247 85.24641136 -49.84912247 85.24641136 -48.57138062 86.52198792 C-45.92494152 89.16286524 -43.27503241 91.80022896 -40.625 94.4375 C-38.82138357 96.23609649 -37.01799575 98.03492227 -35.21484375 99.83398438 C-30.81253739 104.22531248 -26.40738286 108.61376729 -22 113 C-18.60199743 111.52477254 -16.34215335 109.61539429 -13.70629883 107.02856445 C-12.86895706 106.21043777 -12.0316153 105.3923111 -11.16889954 104.5493927 C-9.82652473 103.21976753 -9.82652473 103.21976753 -8.45703125 101.86328125 C-7.53282883 100.95047897 -6.6086264 100.0376767 -5.65641785 99.09721375 C-3.70334523 97.1651128 -1.75494083 95.22842584 0.19116211 93.28930664 C2.67942949 90.81201197 5.18570206 88.35381843 7.69675732 85.89965534 C10.09616878 83.54655979 12.47426703 81.17230048 14.85546875 78.80078125 C15.75645798 77.92448563 16.6574472 77.04819 17.58573914 76.14533997 C20.98363128 72.72281298 23.60424881 69.88211803 25.58764648 65.46118164 C24.62013382 59.76262449 20.79379029 56.73370277 16.7421875 52.8203125 C15.88698517 51.96694305 15.03178284 51.11357361 14.15066528 50.23434448 C12.33902665 48.43478605 10.51767997 46.64495609 8.6875 44.86425781 C5.88550386 42.13523032 3.1167975 39.37559442 0.3515625 36.609375 C-1.41218744 34.86528926 -3.1777536 33.12303791 -4.9453125 31.3828125 C-6.19092453 30.14387741 -6.19092453 30.14387741 -7.46170044 28.87991333 C-8.63718948 27.7427034 -8.63718948 27.7427034 -9.83642578 26.58251953 C-10.86354172 25.57827438 -10.86354172 25.57827438 -11.91140747 24.55374146 C-14.94180138 22.29937705 -17.46746953 21.11007451 -20.91088867 23.1096344 Z M-357.80078125 82.0234375 C-360.97965953 87.2628916 -361.50237252 92.19239548 -360.125 98.125 C-357.87405901 104.57635765 -353.25230448 108.17553651 -347.4375 111.4375 C-341.17794625 112.8820124 -336.64210799 111.97492967 -331 109 C-326.08814317 105.59948374 -323.72331316 102.74437719 -322 97 C-321.05382797 90.5169694 -322.19908727 85.35636317 -326 80 C-330.28884127 75.37040147 -334.57890726 73.23814027 -340.8125 72.625 C-347.95285006 72.85359878 -353.48772994 76.4696454 -357.80078125 82.0234375 Z M-90.22851562 92.05151367 C-91.57496155 93.37870674 -91.57496155 93.37870674 -92.9486084 94.73271179 C-93.93484064 95.71077626 -94.92071238 96.68920435 -95.90625 97.66796875 C-96.40055008 98.1581933 -96.89485016 98.64841785 -97.40412903 99.1534977 C-100.02129996 101.74978176 -102.63515864 104.34935157 -105.24658203 106.95141602 C-107.94510207 109.63888195 -110.65507838 112.31447728 -113.36786652 114.9875288 C-115.45059647 117.04410635 -117.52438418 119.10952741 -119.59587097 121.17742348 C-120.59086385 122.16754478 -121.58923376 123.15428448 -122.59101868 124.13753319 C-123.99388528 125.51604747 -125.38300514 126.90850909 -126.77148438 128.30151367 C-127.9627594 129.48398933 -127.9627594 129.48398933 -129.17810059 130.69035339 C-131.21074265 133.26716132 -131.93188727 134.72121544 -132 138 C-130.87935142 140.05273714 -130.87935142 140.05273714 -129.04101562 141.81030273 C-128.38979736 142.49865204 -127.7385791 143.18700134 -127.06762695 143.89620972 C-126.38531006 144.59046051 -125.70299316 145.2847113 -125 146 C-124.38535889 146.65453156 -123.77071777 147.30906311 -123.13745117 147.98342896 C-119.07754749 152.3057479 -114.91639162 156.53092179 -110.75732422 160.75756836 C-109.24436595 162.30243522 -107.73952884 163.85529488 -106.24267578 165.41577148 C-104.06609576 167.68325992 -101.86468199 169.92373294 -99.65625 172.16015625 C-98.99250366 172.86205582 -98.32875732 173.56395538 -97.64489746 174.28712463 C-97.00733521 174.92206345 -96.36977295 175.55700226 -95.71289062 176.21118164 C-95.16330688 176.77551407 -94.61372314 177.3398465 -94.04748535 177.92127991 C-90.77296818 179.64646317 -88.49828509 178.91506515 -85 178 C-82.39876155 176.25565128 -82.39876155 176.25565128 -80.16625977 173.84741211 C-79.2858754 172.96657455 -78.40549103 172.085737 -77.49842834 171.1782074 C-76.56242546 170.21157117 -75.62675912 169.24460897 -74.69140625 168.27734375 C-73.71623982 167.29097557 -72.73973186 166.30593204 -71.76194763 165.32215881 C-69.20197254 162.73936251 -66.6605343 160.13905906 -64.12261963 157.53460693 C-61.52570732 154.87612705 -58.91155459 152.23471991 -56.29882812 149.59179688 C-51.18225385 144.4110286 -46.08515418 139.21163177 -41 134 C-42.48243822 130.56011491 -44.42455179 128.32743123 -47.06665039 125.69042969 C-47.90414322 124.84986023 -48.74163605 124.00929077 -49.60450745 123.14324951 C-50.50974655 122.24519592 -51.41498566 121.34714233 -52.34765625 120.421875 C-53.27468857 119.4953009 -54.20172089 118.56872681 -55.15684509 117.61407471 C-57.11491259 115.65756833 -59.07628571 113.70445952 -61.0402832 111.75390625 C-63.56309384 109.2481437 -66.07921245 106.73578948 -68.59313297 104.2211113 C-70.98768452 101.82689608 -73.38646603 99.43694411 -75.78515625 97.046875 C-76.69241959 96.14072449 -77.59968292 95.23457397 -78.53443909 94.30096436 C-79.36877975 93.47300354 -80.20312042 92.64504272 -81.06274414 91.79199219 C-82.16955284 90.69090118 -82.16955284 90.69090118 -83.29872131 89.56756592 C-86.51830615 86.60102581 -87.4801011 89.3371668 -90.22851562 92.05151367 Z M-152.8359375 292.1875 C-165.58524653 308.7569991 -171.20789137 328.99749792 -168.50390625 349.8203125 C-166.40852457 361.35083092 -162.53597689 371.28940576 -156 381 C-150.1412643 376.13721083 -144.76355848 370.89921475 -139.39282227 365.50634766 C-138.44620404 364.55944681 -137.49936449 363.61276719 -136.55232239 362.66629028 C-134.00098836 360.11524132 -131.4527336 357.56113695 -128.90504956 355.0064435 C-126.23496681 352.33007869 -123.56202226 349.65657504 -120.88938904 346.98275757 C-115.83729389 341.92756335 -110.78775171 336.86982708 -105.73913759 331.81115663 C-99.98774703 326.04856058 -94.23349208 320.28882838 -88.47900307 314.52932668 C-76.64949433 302.6893858 -64.82356084 290.84588062 -53 279 C-54.37686713 274.86939861 -56.21982051 274.50766696 -60.0625 272.5625 C-92.28509795 256.89212441 -129.50973566 265.15218479 -152.8359375 292.1875 Z M-304.90380859 306.22265625 C-305.82431 307.14361084 -306.7448114 308.06456543 -307.69320679 309.01342773 C-308.67861031 310.02946849 -309.66367949 311.0458336 -310.6484375 312.0625 C-311.66987679 313.09513542 -312.69265307 314.12644991 -313.71670532 315.15649414 C-316.40324801 317.86590223 -319.0712837 320.59284215 -321.73583984 323.32385254 C-324.46006223 326.10954643 -327.20143442 328.8782487 -329.94140625 331.6484375 C-335.31118472 337.08248813 -340.66152224 342.53517734 -346 348 C-341.31179066 353.63568661 -336.30014592 358.83103966 -331.1015625 363.99609375 C-329.84912247 365.24641136 -329.84912247 365.24641136 -328.57138062 366.52198792 C-325.92494152 369.16286524 -323.27503241 371.80022896 -320.625 374.4375 C-318.82138357 376.23609649 -317.01799575 378.03492227 -315.21484375 379.83398438 C-310.81253739 384.22531248 -306.40738286 388.61376729 -302 393 C-298.56756038 391.51965172 -296.33799574 389.58602337 -293.70629883 386.94921875 C-292.86895706 386.11495361 -292.0316153 385.28068848 -291.16889954 384.42114258 C-290.273983 383.51904053 -289.37906647 382.61693848 -288.45703125 381.6875 C-287.53282883 380.76283936 -286.6086264 379.83817871 -285.65641785 378.88549805 C-283.70410772 376.93162656 -281.75519538 374.9744494 -279.80883789 373.01464844 C-277.31213013 370.50091605 -274.80885468 367.99385211 -272.30324268 365.48899841 C-269.91420273 363.09962154 -267.5294281 360.70601252 -265.14453125 358.3125 C-264.24354202 357.41039795 -263.3425528 356.5082959 -262.41426086 355.57885742 C-261.17243294 354.32745972 -261.17243294 354.32745972 -259.90551758 353.05078125 C-259.17367752 352.31512939 -258.44183746 351.57947754 -257.68782043 350.8215332 C-255.49315045 348.45299673 -255.03791213 347.38664596 -254.71969604 344.1413269 C-255.05544993 340.37858044 -255.85909988 339.38310951 -258.48486328 336.73876953 C-259.24630646 335.95841339 -260.00774963 335.17805725 -260.79226685 334.37405396 C-261.62652191 333.55194427 -262.46077698 332.72983459 -263.3203125 331.8828125 C-264.17172821 331.02565643 -265.02314392 330.16850037 -265.90036011 329.28536987 C-267.70386805 327.47778034 -269.51496987 325.67774048 -271.33300781 323.88476562 C-274.11470068 321.13518044 -276.86297675 318.35510126 -279.609375 315.5703125 C-281.36526691 313.81838545 -283.12301915 312.06832055 -284.8828125 310.3203125 C-285.70492218 309.48605743 -286.52703186 308.65180237 -287.37405396 307.79226685 C-288.54458817 306.65010208 -288.54458817 306.65010208 -289.73876953 305.48486328 C-290.41827667 304.8101297 -291.09778381 304.13539612 -291.79788208 303.44021606 C-297.17424486 299.92399926 -300.80381432 302.05470627 -304.90380859 306.22265625 Z M-370.35791016 372.03564453 C-371.25869293 372.91721222 -372.15947571 373.79877991 -373.08755493 374.70706177 C-374.07194349 375.68175413 -375.05576571 376.65701874 -376.0390625 377.6328125 C-377.04510823 378.62735685 -378.05116098 379.62189411 -379.05722046 380.61642456 C-381.16770756 382.70587875 -383.27347797 384.79997295 -385.37695312 386.89648438 C-388.07161705 389.58018819 -390.78430671 392.24485113 -393.50181007 394.90539742 C-395.58796895 396.95427694 -397.66055937 399.01648135 -399.72968674 401.08254623 C-400.72388746 402.07069657 -401.72308518 403.05384575 -402.727314 404.03180313 C-404.13258569 405.40291064 -405.51723429 406.79505903 -406.90087891 408.18798828 C-407.69426666 408.97408478 -408.48765442 409.76018127 -409.30508423 410.57009888 C-411.46039137 413.66003605 -411.56176525 415.30363257 -411 419 C-409.77515521 421.14985404 -409.77515521 421.14985404 -407.93969727 422.92041016 C-407.29775421 423.59952454 -406.65581116 424.27863892 -405.99441528 424.97833252 C-405.33625824 425.64548279 -404.6781012 426.31263306 -404 427 C-403.42281219 427.60801453 -402.84562439 428.21602905 -402.25094604 428.84246826 C-400.50725289 430.67168034 -398.74085388 432.47560783 -396.96484375 434.2734375 C-396.32309708 434.92325592 -395.6813504 435.57307434 -395.02015686 436.24258423 C-393.67626972 437.60017626 -392.33091277 438.9563148 -390.98413086 440.31103516 C-389.61344459 441.69333048 -388.24726035 443.08010383 -386.88549805 444.47119141 C-384.90082247 446.49846884 -382.90328539 448.51222834 -380.90234375 450.5234375 C-380.29905746 451.14423187 -379.69577118 451.76502625 -379.07420349 452.40463257 C-375.69759175 455.76414091 -372.91865768 458.42315817 -368 459 C-361.71833871 456.099406 -357.02678992 450.27791965 -352.2265625 445.421875 C-351.3028183 444.4953009 -350.3790741 443.56872681 -349.42733765 442.61407471 C-346.98656015 440.16570702 -344.55185229 437.71139092 -342.1184082 435.2557373 C-339.62818715 432.74495778 -337.13220523 430.2399193 -334.63671875 427.734375 C-329.75219594 422.82848383 -324.87406865 417.91627708 -320 413 C-324.67987728 407.38442728 -329.66431114 402.17495775 -334.828125 397.00390625 C-335.65834167 396.17036118 -336.48855835 395.3368161 -337.34393311 394.47801208 C-339.08735221 392.72955675 -340.83210525 390.98243059 -342.578125 389.23657227 C-345.2606956 386.55179561 -347.93514762 383.85909974 -350.609375 381.16601562 C-352.30680258 379.46565745 -354.00470243 377.76577057 -355.703125 376.06640625 C-356.50518372 375.25716202 -357.30724243 374.44791779 -358.13360596 373.614151 C-359.245513 372.5068589 -359.245513 372.5068589 -360.37988281 371.37719727 C-361.03241028 370.72324478 -361.68493774 370.0692923 -362.35723877 369.39552307 C-365.90510507 366.38161625 -367.58363514 369.30902551 -370.35791016 372.03564453 Z " fill="#000000" transform="translate(445,8)"/>
<path d="M0 0 C3.3872841 2.72864553 4.98710642 5.72790591 5.53710938 10.08911133 C5.6555664 12.77491663 5.66539173 15.43686104 5.625 18.125 C5.61484863 19.10049805 5.60469727 20.07599609 5.59423828 21.08105469 C4.90827573 53.59248893 -9.04486649 81.02803648 -31.7890625 103.859375 C-51.32148877 122.14816365 -79.63491218 134.76228383 -106.6640625 134.0625 C-110.86097612 133.55949912 -113.01478687 131.46823063 -116.0625 128.75 C-118.52612511 124.4614674 -118.53118718 120.6465791 -117.75 115.8125 C-115.75342873 111.95705202 -114.35292362 110.21444908 -110.75 107.8125 C-107.85031007 107.30833281 -104.97798895 106.88215226 -102.0625 106.5 C-77.20349336 102.8588672 -55.41482462 91.82270405 -39.75 71.8125 C-27.45745642 54.28264031 -22.4589256 35.88692456 -21.75 14.8125 C-21.59146613 10.16428694 -21.41970186 6.20894499 -18.5625 2.375 C-12.75796367 -2.91357755 -7.11645579 -3.073015 0 0 Z " fill="#000000" transform="translate(499.75,374.1875)"/>
<path d="M0 0 C3.56702816 2.20093227 5.46854379 4.13457778 7 8 C8.99080209 25.33849723 2.63744633 42.76676847 -7.9375 56.375 C-9.27226387 57.93349571 -10.62569606 59.47625719 -12 61 C-12.59167969 61.68449219 -13.18335938 62.36898437 -13.79296875 63.07421875 C-25.76615594 76.06857329 -43.05422115 83.85461972 -60.51953125 85.2890625 C-71.03712037 85.70756343 -71.03712037 85.70756343 -74.75 82.75 C-78.32028122 78.38632295 -79.47944267 75.86404769 -79.31640625 70.02734375 C-78.78426659 66.61770816 -77.21560602 64.57489349 -75 62 C-71.00265196 59.08496641 -67.10540692 58.28497481 -62.3125 57.5625 C-47.87977132 55.07867474 -36.72867438 49.12436815 -28 37 C-23.80010115 29.81449667 -21.09234251 22.79150721 -20.125 14.5 C-19.34016009 9.19931196 -18.70118322 5.90680451 -15 2 C-10.08715913 -1.54181551 -5.672626 -1.54898275 0 0 Z " fill="#000000" transform="translate(452,377)"/>
</svg>
